<svg width="28" height="28" viewBox="0 0 28 28" fill="none" xmlns="http://www.w3.org/2000/svg">
  <g id="user">
    <path id="Vector"
      d="M21 22.1666V20.7083C21 18.2921 18.7612 16.3333 15.9997 16.3333H12.0003C9.23883 16.3333 7 18.2921 7 20.7083V22.1666M17.5 9.33325C17.5 10.2615 17.1313 11.1517 16.4749 11.8081C15.8185 12.4645 14.9283 12.8333 14 12.8333C13.0717 12.8333 12.1815 12.4645 11.5251 11.8081C10.8687 11.1517 10.5 10.2615 10.5 9.33325C10.5 8.40499 10.8687 7.51476 11.5251 6.85838C12.1815 6.202 13.0717 5.83325 14 5.83325C14.9283 5.83325 15.8185 6.202 16.4749 6.85838C17.1313 7.51476 17.5 8.40499 17.5 9.33325Z"
      stroke="#ffffff"
      stroke-width="2"
      stroke-linecap="round"
      stroke-linejoin="round" />
  </g>
</svg>
